<?xml version="1.0" encoding="UTF-8"?>
<svg xmlns="http://www.w3.org/2000/svg" id="Layer_1" data-name="Layer 1" viewBox="0 0 24 24">
  <path d="m22,19.051v-9.086c0-1.602-.862-3.095-2.249-3.897-.24-.14-.546-.057-.683.183-.139.238-.057.545.182.683,1.08.625,1.75,1.786,1.75,3.032v9.035h-5.5c-.133,0-.26.053-.354.146l-.854.854h-4.586l-.854-.854c-.094-.094-.221-.146-.354-.146H3v-9.035c0-1.246.671-2.407,1.75-3.032.239-.138.321-.444.182-.683-.138-.239-.443-.322-.683-.183-1.388.803-2.25,2.296-2.25,3.897v9.086c-1.14.232-2,1.242-2,2.449,0,1.379,1.122,2.5,2.5,2.5h19c1.378,0,2.5-1.121,2.5-2.5,0-1.208-.86-2.217-2-2.449Zm-.5,3.949H2.5c-.827,0-1.5-.673-1.5-1.5s.673-1.5,1.5-1.5h5.793l.854.854c.094.094.221.146.354.146h5c.133,0,.26-.053.354-.146l.854-.854h5.793c.827,0,1.5.673,1.5,1.5s-.673,1.5-1.5,1.5Zm-9.5-14c1.103,0,2-.897,2-2s-.897-2-2-2-2,.897-2,2,.897,2,2,2Zm0-3c.551,0,1,.448,1,1s-.449,1-1,1-1-.448-1-1,.449-1,1-1Zm-6.201,3.392c-.102.388-.046.791.155,1.137.202.347.527.593.915.694.388.104.79.047,1.137-.155l.641-.374c.536.489,1.166.852,1.853,1.067v.739c0,.827.673,1.5,1.5,1.5s1.5-.673,1.5-1.5v-.739c.687-.216,1.316-.578,1.853-1.067l.641.374c.347.202.75.26,1.137.155.388-.102.712-.348.914-.694.202-.346.257-.749.156-1.137-.102-.388-.349-.712-.694-.914l-.646-.378c.094-.385.14-.747.14-1.1s-.046-.716-.14-1.101l.646-.377c.714-.418.956-1.339.539-2.052-.417-.715-1.337-.957-2.051-.539l-.641.374c-.537-.489-1.167-.852-1.853-1.067v-.738c0-.827-.673-1.5-1.5-1.5s-1.5.673-1.5,1.5v.738c-.687.216-1.317.578-1.853,1.067l-.641-.374c-.716-.418-1.635-.176-2.051.539-.417.713-.175,1.634.539,2.052l.646.377c-.094.386-.14.748-.14,1.101s.046.715.14,1.1l-.646.378c-.346.202-.593.526-.695.914Zm.967.254c.034-.129.116-.237.232-.305l.979-.572c.201-.117.294-.358.225-.581-.138-.44-.203-.818-.203-1.188s.064-.748.203-1.188c.07-.223-.023-.464-.225-.581l-.979-.571c-.238-.14-.319-.446-.18-.685.139-.239.446-.318.684-.18l.971.566c.201.117.457.08.617-.09.549-.586,1.248-.988,2.021-1.164.228-.052.389-.254.389-.487v-1.12c0-.275.224-.5.5-.5s.5.225.5.5v1.12c0,.233.162.436.389.487.773.176,1.472.578,2.021,1.164.16.171.416.207.617.09l.971-.566c.238-.139.545-.059.684.18s.058.545-.18.685l-.979.571c-.202.117-.295.358-.225.581.138.439.202.817.202,1.188s-.064.748-.202,1.188c-.07.223.023.464.225.581l.98.572c.115.067.197.176.231.305.034.129.016.264-.052.379-.067.115-.175.197-.304.231-.13.032-.265.015-.379-.052l-.971-.566c-.201-.117-.457-.08-.617.09-.549.586-1.248.988-2.021,1.164-.228.052-.389.254-.389.487v1.121c0,.275-.224.5-.5.5s-.5-.225-.5-.5v-1.121c0-.233-.162-.436-.389-.487-.772-.176-1.471-.578-2.021-1.164-.097-.104-.23-.158-.365-.158-.086,0-.173.022-.252.068l-.971.566c-.116.066-.251.084-.379.052-.129-.034-.237-.116-.305-.231s-.085-.25-.052-.379Z"/>
</svg>
